<?xml version="1.0" encoding="UTF-8" standalone="no"?>
<!-- Generator: Adobe Illustrator 25.0.1, SVG Export Plug-In . SVG Version: 6.00 Build 0)  -->

<svg
   version="1.1"
   id="Ebene_1"
   x="0px"
   y="0px"
   viewBox="0 0 181.4 181.4"
   style="enable-background:new 0 0 181.4 181.4;"
   xml:space="preserve"
   sodipodi:docname="seeband_logo_cleaner.svg"
   inkscape:version="1.3.2 (091e20e, 2023-11-25, custom)"
   xmlns:inkscape="http://www.inkscape.org/namespaces/inkscape"
   xmlns:sodipodi="http://sodipodi.sourceforge.net/DTD/sodipodi-0.dtd"
   xmlns:xlink="http://www.w3.org/1999/xlink"
   xmlns="http://www.w3.org/2000/svg"
   xmlns:svg="http://www.w3.org/2000/svg"><defs
   id="defs16" />
<style
   type="text/css"
   id="style1">
	.st0{display:none;clip-path:url(#SVGID_2_);}
	.st1{display:inline;fill:#C3E7C3;}
	.st2{display:inline;fill:none;stroke:#CF0C09;stroke-width:4.252;stroke-miterlimit:11.3386;stroke-dasharray:12.7559,4.252;}
	.st3{clip-path:url(#SVGID_4_);fill:#F8EEEC;}
	.st4{fill:none;stroke:#73250E;stroke-width:2;stroke-miterlimit:10;}
	.st5{fill:none;stroke:#73250E;stroke-width:2;stroke-miterlimit:10;stroke-dasharray:6.0483,6.0483;}
	.st6{clip-path:url(#SVGID_6_);}
	.st7{fill:url(#path4_1_);stroke:#000000;stroke-width:3.4995;stroke-miterlimit:46.6597;}
	.st8{fill:#FFFFFF;stroke:#FFFFFF;stroke-width:3.162;stroke-miterlimit:11.3386;}
	.st9{clip-path:url(#SVGID_8_);fill:none;stroke:#EB9C11;stroke-width:11.2087;stroke-linecap:round;stroke-miterlimit:11.3386;}
	.st10{clip-path:url(#SVGID_10_);fill:none;stroke:#EB9C11;stroke-width:11.2087;stroke-linecap:round;stroke-miterlimit:11.3386;}
	.st11{clip-path:url(#SVGID_12_);fill:none;stroke:#32994D;stroke-width:11.6414;stroke-linecap:round;stroke-miterlimit:11.3386;}
	.st12{clip-path:url(#SVGID_14_);fill:none;stroke:#EB9C11;stroke-width:11.2087;stroke-linecap:round;stroke-miterlimit:11.3386;}
	.st13{font-family:'MyriadPro-Regular';}
	.st14{font-size:20px;}
	.st15{font-size:16px;}
	.st16{font-size:10px;}
</style>
<sodipodi:namedview
   bordercolor="#666666"
   borderopacity="1.0"
   id="namedview1"
   pagecolor="#ffffff"
   inkscape:showpageshadow="2"
   inkscape:pageopacity="0.0"
   inkscape:pagecheckerboard="0"
   inkscape:deskcolor="#d1d1d1"
   inkscape:zoom="2.312569"
   inkscape:cx="97.078185"
   inkscape:cy="85.402857"
   inkscape:window-width="1920"
   inkscape:window-height="1017"
   inkscape:window-x="1912"
   inkscape:window-y="-8"
   inkscape:window-maximized="1"
   inkscape:current-layer="layer3" />
<g
   id="g1">
	<defs
   id="defs1">
		<rect
   id="SVGID_1_"
   y="0"
   width="181.4"
   height="181.4" />
	</defs>
	<clipPath
   id="SVGID_2_">
		<use
   xlink:href="#SVGID_1_"
   style="overflow:visible;"
   id="use1" />
	</clipPath>
	<g
   id="layer2"
   class="st0"
   clip-path="url(#SVGID_2_)">
		<rect
   id="rect12"
   y="0.5"
   class="st1"
   width="181.6"
   height="181.1" />
		<path
   id="path12"
   class="st2"
   d="M5.2,107.8h175" />
	</g>
</g>











<g
   inkscape:groupmode="layer"
   id="layer3"
   inkscape:label="Layer 2"><rect
     style="fill:#ffffff;fill-opacity:1;stroke:none;stroke-width:3.97275;stroke-linejoin:round"
     id="rect1"
     width="181.5081"
     height="180.96758"
     x="0"
     y="0.43241954"
     ry="0" /><g
     id="g2"
     style="enable-background:new 0 0 181.4 181.4">
	<defs
   id="defs2">
		<rect
   id="SVGID_3_"
   y="0"
   width="181.4"
   height="181.4" />
	</defs>
	<clipPath
   id="SVGID_4_">
		<use
   xlink:href="#SVGID_3_"
   style="overflow:visible;"
   id="use2" />
	</clipPath>
	<path
   id="path3"
   class="st3"
   d="M83.9,121c-13.6-2-27.2-9.2-40.9-21.9l-3.2-3l1.7-1.8c2.5-2.5,8.7-8,11.8-10.4   c7-5.3,14.4-9.3,21.4-11.6C81,70.2,85.4,68,92.2,68c6.7,0,10.5,0.3,16.8,2.3c11,3.6,18.7,11.4,31.1,22.8l1.8,1.6l-2.9,3   c-6.1,6.3-15.1,13-22.2,16.8c-5.5,2.9-11.2,4.9-17.2,6.1C95.6,121.4,87.7,121.6,83.9,121L83.9,121z M94.6,106.4   c4.9-1.7,8.1-7,7.1-12.1c-0.7-3.7-2.4-6.1-5.6-7.8c-1.9-1-2.2-1.1-5.1-1.1c-2.6,0,0.2,0.3-1,1c-2.4,1.2-2.5,3.4-3.7,5.8   c-1,1.8-0.3,1.1-0.3,3.4c0,2.3,0.1,3.1,1,5c1.3,2.6,0.4,3.1,2.8,4C91.8,105.4,92.6,107.1,94.6,106.4L94.6,106.4z"
   clip-path="url(#SVGID_4_)" />
</g><g
     id="g5"
     style="enable-background:new 0 0 181.4 181.4">
	<g
   id="g4">
		<line
   class="st4"
   x1="0"
   y1="105.6"
   x2="3"
   y2="105.6"
   id="line2" />
		<line
   class="st5"
   x1="9"
   y1="105.6"
   x2="175.4"
   y2="105.6"
   id="line3" />
		<line
   class="st4"
   x1="178.4"
   y1="105.6"
   x2="181.4"
   y2="105.6"
   id="line4" />
	</g>
</g><g
     id="g7"
     style="enable-background:new 0 0 181.4 181.4;stroke-width:4;stroke-dasharray:none">
	<defs
   id="defs5">
		<rect
   id="SVGID_5_"
   y="0"
   width="181.4"
   height="181.4" />
	</defs>
	<clipPath
   id="SVGID_6_">
		<use
   xlink:href="#SVGID_5_"
   style="overflow:visible;"
   id="use5" />
	</clipPath>
	<g
   id="Auge"
   class="st6"
   clip-path="url(#SVGID_6_)"
   style="stroke-width:4;stroke-dasharray:none">
		<g
   id="g6"
   transform="matrix(2.0285779,0,0,2.0285779,-147.23209,-259.04832)"
   style="stroke-width:1.9718247;stroke-dasharray:none">
			
				<radialGradient
   id="path4_1_"
   cx="-84.1482"
   cy="314.4988"
   r="4.4422"
   gradientTransform="matrix(11.6649 0 0 11.4907 1102.9457 -3440.9646)"
   gradientUnits="userSpaceOnUse">
				<stop
   offset="0"
   style="stop-color:#39BEE0"
   id="stop5" />
				<stop
   offset="1"
   style="stop-color:#A8DCEB"
   id="stop6" />
			</radialGradient>
			<ellipse
   id="path4"
   class="st7"
   cx="121.4"
   cy="172.8"
   rx="12.2"
   ry="12"
   style="stroke-width:1.9718247;stroke-dasharray:none" />
		</g>
		<circle
   id="path2"
   cx="99"
   cy="91.6"
   r="10"
   style="stroke-width:4;stroke-dasharray:none" />
		<circle
   id="path5"
   class="st8"
   cx="95.1"
   cy="83.5"
   r="1.8"
   style="stroke-width:4;stroke-dasharray:none" />
	</g>
</g><g
     id="g8"
     style="enable-background:new 0 0 181.4 181.4">
	<defs
   id="defs7">
		<rect
   id="SVGID_7_"
   y="0"
   width="181.4"
   height="181.4" />
	</defs>
	<clipPath
   id="SVGID_8_">
		<use
   xlink:href="#SVGID_7_"
   style="overflow:visible;"
   id="use7" />
	</clipPath>
	<path
   id="path1"
   class="st9"
   d="M1.9,1.5c36.2,161.3,146.1,165.7,177.6,0"
   clip-path="url(#SVGID_8_)" />
</g><g
     id="g9"
     style="enable-background:new 0 0 181.4 181.4">
	<defs
   id="defs8">
		<rect
   id="SVGID_9_"
   y="0"
   width="181.4"
   height="181.4" />
	</defs>
	<clipPath
   id="SVGID_10_">
		<use
   xlink:href="#SVGID_9_"
   style="overflow:visible;"
   id="use8" />
	</clipPath>
	<path
   id="path1_1_"
   class="st10"
   d="M1.9,1.5C25.8,107.9,81.8,146.1,126.1,112"
   clip-path="url(#SVGID_10_)" />
</g><g
     id="g10"
     style="enable-background:new 0 0 181.4 181.4">
	<defs
   id="defs9">
		<rect
   id="SVGID_11_"
   y="0"
   width="181.4"
   height="181.4" />
	</defs>
	<clipPath
   id="SVGID_12_">
		<use
   xlink:href="#SVGID_11_"
   style="overflow:visible;"
   id="use9" />
	</clipPath>
	<path
   id="path1-8"
   class="st11"
   d="M182.3,179.4C141.8,23.8,51.5,22.7-0.9,179.4"
   clip-path="url(#SVGID_12_)" />
</g><g
     id="g11"
     style="enable-background:new 0 0 181.4 181.4">
	<defs
   id="defs10">
		<rect
   id="SVGID_13_"
   y="0"
   width="181.4"
   height="181.4" />
	</defs>
	<clipPath
   id="SVGID_14_">
		<use
   xlink:href="#SVGID_13_"
   style="overflow:visible;"
   id="use10" />
	</clipPath>
	<path
   id="path1_2_"
   class="st12"
   d="M126.1,112C149,94.5,168.8,57.9,179.5,1.5"
   clip-path="url(#SVGID_14_)" />
</g><text
     transform="translate(54.2604,25.5945)"
     class="st13 st14"
     id="text11"
     style="enable-background:new 0 0 181.4 181.4">SeeBand</text><text
     transform="translate(74.2844,45.7683)"
     class="st13 st15"
     id="text12"
     style="enable-background:new 0 0 181.4 181.4">2024</text><g
     id="g15"
     style="enable-background:new 0 0 181.4 181.4">
	<text
   class="st13 st16"
   id="text13"
   x="78.402298"
   y="159.13416">Alexander Riss</text>
	<text
   class="st13 st16"
   id="text14"
   x="78.402298"
   y="144.78931">Michael Parzer</text>
	<text
   transform="matrix(1 0 0 1 78.4026 173.479)"
   class="st13 st16"
   id="text15">Fabian Garmroudi</text>
</g><text
     transform="translate(32.4638,144.8992)"
     class="st13 st16"
     id="text16"
     style="enable-background:new 0 0 181.4 181.4">Authors:</text></g><g
   inkscape:groupmode="layer"
   id="layer1"
   inkscape:label="Layer 1" /></svg>
