<?xml version="1.0" encoding="UTF-8" standalone="no"?>
<!-- Created with Inkscape (http://www.inkscape.org/) -->

<svg
   width="64"
   height="64"
   viewBox="0 0 16.933333 16.933334"
   version="1.1"
   id="svg253553"
   sodipodi:docname="siimply-fitting_logo.svg"
   inkscape:export-filename="C:\Users\Michael\Desktop\PB_KI_fitting - Kopie\GUI\siimply-fitting-logo_smaller.png"
   inkscape:export-xdpi="150"
   inkscape:export-ydpi="150"
   inkscape:version="1.1.1 (3bf5ae0d25, 2021-09-20)"
   xmlns:inkscape="http://www.inkscape.org/namespaces/inkscape"
   xmlns:sodipodi="http://sodipodi.sourceforge.net/DTD/sodipodi-0.dtd"
   xmlns="http://www.w3.org/2000/svg"
   xmlns:svg="http://www.w3.org/2000/svg">
  <sodipodi:namedview
     id="namedview253555"
     pagecolor="#ffffff"
     bordercolor="#666666"
     borderopacity="1.0"
     inkscape:pageshadow="2"
     inkscape:pageopacity="0.0"
     inkscape:pagecheckerboard="0"
     inkscape:document-units="px"
     showgrid="false"
     units="px"
     inkscape:zoom="5.9295174"
     inkscape:cx="51.015956"
     inkscape:cy="24.538253"
     inkscape:window-width="1920"
     inkscape:window-height="1017"
     inkscape:window-x="-8"
     inkscape:window-y="-8"
     inkscape:window-maximized="1"
     inkscape:current-layer="layer1" />
  <defs
     id="defs253550" />
  <g
     inkscape:label="Layer 1"
     inkscape:groupmode="layer"
     id="layer1">
    <circle
       style="fill:#e647e4;fill-opacity:1;stroke:#c41cc1;stroke-width:0.639122;stroke-miterlimit:10;stroke-dasharray:none;stroke-opacity:1"
       id="path253691"
       cx="2.247364"
       cy="12.42733"
       r="1.430439" />
    <circle
       style="fill:#e647e4;fill-opacity:1;stroke:#c41cc1;stroke-width:0.639122;stroke-miterlimit:10;stroke-dasharray:none;stroke-opacity:1"
       id="path253691-7"
       cx="9.4663"
       cy="8.4079676"
       r="1.430439" />
    <circle
       style="fill:#e647e4;fill-opacity:1;stroke:#c41cc1;stroke-width:0.639122;stroke-miterlimit:10;stroke-dasharray:none;stroke-opacity:1"
       id="path253691-4"
       cx="11.811775"
       cy="2.1037686"
       r="1.430439" />
    <path
       style="fill:none;stroke:#1c8fc4;stroke-width:0.86314;stroke-linecap:butt;stroke-linejoin:miter;stroke-miterlimit:4;stroke-dasharray:none;stroke-opacity:1"
       d="M -0.44787676,15.069577 15.238944,-0.23249499"
       id="path258597"
       sodipodi:nodetypes="cc" />
    <g
       id="#4bc95bff"
       transform="matrix(0.02294131,0,0,0.02294131,7.6888476,7.7477835)"
       style="stroke:#2d963b;stroke-opacity:1;stroke-width:11.53305264;stroke-miterlimit:4;stroke-dasharray:none">
      <path
         fill="#4bc95b"
         opacity="1"
         d="m 342.47,40.09 c 1,-1.31 1.19,-4 3.24,-3.88 0.73,1.09 1.35,2.24 1.98,3.39 0.03,-0.53 0.1,-1.58 0.14,-2.11 1.53,0.31 2.82,-0.1 3.88,-1.21 0.51,1.23 1.03,2.46 1.56,3.69 -1.38,4.41 -2.66,8.86 -3.3,13.45 1.59,0.01 3.18,0.02 4.77,0.04 -0.22,1.32 -0.44,2.64 -0.65,3.96 0.75,-1.16 1.53,-2.31 2.29,-3.46 0.25,0.71 0.76,2.12 1.01,2.83 1.29,-0.13 2.59,-0.26 3.89,-0.39 0.66,3.05 1.29,6.13 1.28,9.27 1.97,0.01 3.93,0.02 5.91,0.01 l 0.25,2.23 c -1,-0.15 -3,-0.47 -3.99,-0.63 3.23,2.92 6.67,5.63 9.62,8.85 -6.65,9.95 -12.04,20.75 -16.21,31.96 -1.38,3.24 -1.14,7.5 -4.26,9.74 -15.62,12.25 -30.59,25.45 -43.66,40.42 -11.14,12.25 -21.92,24.81 -32.43,37.6 -11.15,13.58 -22.99,26.71 -32.17,41.76 -4.87,7.68 -9.16,15.7 -13.36,23.76 -7.89,13.85 -15.07,28.1 -22.9,41.98 -5.31,11.91 -10.81,23.98 -12.73,37 -0.73,0.95 -1.57,1.82 -2.43,2.66 1.29,2.81 0.98,5.78 -0.15,8.61 -0.81,-3.03 -1.2,-6.13 -1.62,-9.23 -0.27,4.69 -0.79,9.39 -2.81,13.71 -0.24,-2.8 -0.29,-5.59 -0.13,-8.38 -0.26,0.92 -0.77,2.74 -1.03,3.65 -0.38,-1.95 -0.71,-3.89 -1.03,-5.84 -0.02,3.09 -0.17,6.15 -0.45,9.23 -0.48,-3.29 -0.83,-6.59 -1.41,-9.86 -0.83,6.39 -0.76,12.84 -1.02,19.27 -0.21,-5.22 -0.77,-10.42 -1.26,-15.62 -0.67,3.34 -1.97,6.5 -3.31,9.62 -0.58,-2.79 -1.06,-5.57 -1.46,-8.39 -0.53,5.55 -0.64,11.13 -0.92,16.7 -0.38,-4.4 -0.65,-8.83 -1.64,-13.14 -0.79,3.26 -1.24,6.59 -1.44,9.94 -0.22,-2.15 -0.47,-4.32 -0.76,-6.44 -0.79,3.19 -1.19,6.47 -1.93,9.67 -0.57,-2.96 -0.87,-5.95 -1.38,-8.91 -1.28,2.83 -1.52,5.95 -2.13,8.96 -1.8,-1.89 -1.23,-4.69 -1.61,-7.06 -0.41,0.91 -0.82,1.82 -1.24,2.73 -0.6,0.32 -1.82,0.96 -2.42,1.28 -0.07,-0.38 -0.2,-1.13 -0.26,-1.51 -0.3,1.97 -0.62,3.93 -0.93,5.9 l -1.59,-0.63 c 0.36,2.4 0.75,4.8 1.17,7.2 -1.28,-2.85 -2.39,-5.79 -3.32,-8.77 -0.74,1.26 -1.46,2.5 -2.17,3.78 -0.16,-1.94 -0.3,-3.85 -0.47,-5.78 -0.18,1.7 -0.36,3.41 -0.53,5.12 -0.35,-0.12 -1.04,-0.37 -1.39,-0.49 -0.51,1.16 -1.03,2.32 -1.56,3.48 -4.77,-5.92 -8.3,-12.75 -13.14,-18.64 -9.62,-11.3 -19.99,-22.01 -31.4,-31.52 -5.19,-4.02 -9.61,-8.95 -15.07,-12.63 -0.26,5.08 4.55,7.93 7.84,10.87 1.17,1.11 -0.92,1.07 -1.32,0.32 -2.81,-2.24 -4.89,-5.21 -7.02,-8.06 -1.53,-1.85 -0.65,-4.8 -2.62,-6.36 C 80.55,298.9 71.83,291.98 63.4,284.73 52.73,276.89 42.74,267.92 30.74,262.08 c -2.92,-3.75 -5.26,-7.91 -8.02,-11.77 -2.41,-3.39 -4.71,-7.11 -5.2,-11.32 -0.22,-5.2 0.1,-10.41 -0.31,-15.61 3.63,0.77 7.9,0.45 10.56,-2.43 2.98,-3.29 3.1,-7.94 3.87,-12.08 1.85,-0.25 3.7,-0.52 5.55,-0.81 0.34,0.19 1.02,0.58 1.36,0.77 0.71,-0.91 1.45,-1.79 2.22,-2.63 1.27,0.31 2.41,0.91 3.41,1.8 -0.51,-1.38 -0.98,-2.78 -1.44,-4.17 0.54,0.21 1.63,0.64 2.18,0.86 0.96,-0.46 1.93,-0.9 2.9,-1.34 0.2,-0.3 0.61,-0.9 0.81,-1.2 0.68,0.57 1.37,1.13 2.06,1.7 -0.11,-1.01 -0.32,-3.03 -0.43,-4.04 0.72,0.55 2.17,1.64 2.89,2.19 0.34,-1.3 0.67,-2.61 1,-3.9 0.76,0.43 1.51,0.86 2.27,1.29 0.37,-0.1 1.09,-0.3 1.46,-0.4 6.45,3.83 13.43,6.66 20.15,9.98 6.25,3.11 10.89,8.46 16.05,13 5.85,3.88 11.87,7.51 17.93,11.06 5.13,3.19 10.04,6.83 15.65,9.16 3.29,1.4 6.95,1.07 10.44,1.15 0.5,1.04 1.01,2.08 1.52,3.11 0.72,-1.56 1.38,-3.16 1.87,-4.82 1.41,1.65 3.02,3.11 4.63,4.55 2.36,-5.85 4.75,-11.69 7.64,-17.3 0.55,-0.44 1.1,-0.88 1.65,-1.31 2.45,-2.16 5.16,-3.96 8.06,-5.45 4.94,-3.24 8.12,-8.42 11.34,-13.24 2.96,-4.69 6.76,-8.77 9.7,-13.48 5.47,-8.74 10.84,-17.6 17.26,-25.69 4.08,-5.16 8.55,-10.01 12.49,-15.28 5.63,-7.44 10.84,-15.2 16.8,-22.39 13.42,-16.81 29.2,-31.48 44.57,-46.44 21.04,-17.64 42.11,-35.72 66.44,-48.71 0.1,0.8 0.3,2.4 0.4,3.2 z"
         id="path3"
         style="stroke:#2d963b;stroke-opacity:1;stroke-width:11.53305264;stroke-miterlimit:4;stroke-dasharray:none" />
      <path
         fill="#4bc95b"
         opacity="1"
         d="m 163.34,365.16 c 0.95,0.65 1.93,1.28 2.9,1.93 -2.52,0.27 -4.01,2.69 -3.83,5.06 -0.17,-1.11 -0.32,-2.21 -0.47,-3.32 0.84,-1.06 1.19,-2.37 1.4,-3.67 z"
         id="path5"
         style="stroke:#2d963b;stroke-opacity:1;stroke-width:11.53305264;stroke-miterlimit:4;stroke-dasharray:none" />
      <path
         fill="#4bc95b"
         opacity="1"
         d="m 157.25,369.91 c 1.35,-0.38 1.75,0.16 1.18,1.62 -1.36,0.37 -1.75,-0.17 -1.18,-1.62 z"
         id="path7"
         style="stroke:#2d963b;stroke-opacity:1;stroke-width:11.53305264;stroke-miterlimit:4;stroke-dasharray:none" />
    </g>
  </g>
</svg>
